<svg width="55" height="56" viewBox="0 0 55 56" fill="none" xmlns="http://www.w3.org/2000/svg">
<path d="M14.5903 27.8562C14.831 27.8562 15.0717 27.7123 15.1679 27.4726C15.7937 28.863 16.7083 30.1096 17.7672 31.2123C20.1259 33.5616 23.351 35 26.913 35C30.475 35 33.7482 33.5616 36.0587 31.2123C36.2031 31.0685 36.3475 30.9247 36.4438 30.7808H41.6906C42.3645 30.7808 42.9421 30.589 43.3272 30.1575C43.7123 29.726 43.9048 29.1507 43.8567 28.3356V25.6027C44.6268 24.5959 45.1082 23.3493 45.1082 22.0068V21.9589V19.6096C45.1082 17.5 44.7231 15.3904 44.0011 13.4247C43.3272 11.6027 42.3645 9.87671 41.1611 8.39041C41.3536 8.05479 41.4499 7.67123 41.4499 7.28767C41.4499 6.76027 41.2573 6.18493 40.8241 5.75342C38.9468 3.88356 36.7807 2.44521 34.4221 1.4863C32.0153 0.479452 29.416 0 26.8648 0C24.3137 0 21.7143 0.479452 19.3076 1.4863C16.9971 2.44521 14.831 3.88356 12.9056 5.75342C12.4723 6.18493 12.2798 6.71233 12.2798 7.23973C12.2798 7.62329 12.3761 8.00685 12.5686 8.34247C11.3652 9.87671 10.4025 11.6027 9.72862 13.3767C9.24726 14.9589 8.86218 16.637 8.76591 18.3151C8.71777 18.411 8.71777 18.4589 8.71777 18.5548V19.6096V22.0068C8.71777 23.637 9.39167 25.0753 10.4507 26.1301C11.5096 27.1849 12.9537 27.8562 14.5903 27.8562ZM35.8662 29.4863H30.4269C30.3306 29.1027 30.0899 28.7192 29.8011 28.4315C29.3679 28 28.7903 27.7123 28.1164 27.7123H25.7096C25.0357 27.7123 24.4581 28 24.0248 28.4315C23.5916 28.863 23.3028 29.4384 23.3028 30.1096C23.3028 30.7808 23.5916 31.3562 24.0248 31.7877C24.4581 32.2192 25.0357 32.5069 25.7096 32.5069H28.1164C28.7903 32.5069 29.3679 32.2192 29.8011 31.7877C30.0899 31.5 30.2825 31.1644 30.4269 30.7329H34.6146C32.5448 32.5548 29.8492 33.6575 26.913 33.6575C23.6879 33.6575 20.7516 32.363 18.6818 30.2534C16.5639 28.1438 15.2642 25.2671 15.2642 22.0548C15.2642 18.8425 16.5639 15.9178 18.6818 13.8562C20.7998 11.7466 23.6879 10.4521 26.913 10.4521C30.1381 10.4521 33.0743 11.7466 35.1441 13.8562C37.2621 15.9658 38.5618 18.8425 38.5618 22.0548C38.5618 24.8836 37.5509 27.4726 35.8662 29.4863ZM29.2235 30.1096C29.2235 30.3973 29.0791 30.6849 28.8865 30.8767C28.694 31.0685 28.4052 31.2123 28.1164 31.2123H25.7096C25.4208 31.2123 25.132 31.0685 24.9394 30.8767C24.7469 30.6849 24.6025 30.3973 24.6025 30.1096C24.6025 29.8219 24.7469 29.5342 24.9394 29.3425C25.132 29.1507 25.4208 29.0068 25.7096 29.0068H28.1164C28.4052 29.0068 28.694 29.1507 28.8865 29.3425C29.0791 29.5342 29.2235 29.8219 29.2235 30.1096ZM42.3645 29.2945C42.2201 29.4384 42.0275 29.4863 41.6906 29.4863H37.5028C37.936 28.863 38.3692 28.1918 38.658 27.4726C38.7543 27.6644 38.995 27.8562 39.2357 27.8562C40.4872 27.8562 41.6424 27.4726 42.557 26.8014L42.6051 28.3356C42.6051 28.8151 42.5089 29.1027 42.3645 29.2945ZM42.5089 25.1712C41.835 25.8425 40.9204 26.3219 39.9095 26.4658V21.9589V17.4521C40.9204 17.5959 41.835 18.0753 42.5089 18.7466C43.3272 19.5616 43.8085 20.7123 43.8567 21.9589C43.8567 23.2055 43.3272 24.3562 42.5089 25.1712ZM13.8683 6.61644C15.6493 4.84247 17.671 3.54795 19.8371 2.63699C22.0994 1.72603 24.5062 1.24658 26.913 1.24658C29.3198 1.24658 31.7265 1.72603 33.9889 2.63699C36.155 3.54795 38.1767 4.84247 39.9577 6.61644C40.1021 6.76027 40.1984 7 40.1984 7.23973C40.1984 7.47945 40.1021 7.67123 39.9577 7.86301C39.8133 8.00685 39.5726 8.10274 39.3319 8.10274C39.1394 8.10274 38.8987 8.00685 38.7543 7.86301C38.7543 7.86301 38.7543 7.81507 38.7062 7.81507C37.1177 6.23288 35.2885 5.03425 33.315 4.21918C31.2452 3.35616 29.0791 2.9726 26.913 2.9726C24.7469 2.9726 22.5808 3.40411 20.511 4.21918C18.5374 5.03425 16.7083 6.23288 15.0717 7.81507C15.0717 7.81507 15.0717 7.81507 15.0235 7.86301C14.8791 8.00685 14.6384 8.10274 14.4459 8.10274C14.2052 8.10274 14.0127 8.00685 13.8201 7.86301C13.6757 7.71918 13.5795 7.47945 13.5795 7.23973C13.6276 7 13.7239 6.80822 13.8683 6.61644ZM11.0283 13.8082C11.654 12.1301 12.5205 10.5479 13.6276 9.15753C13.9164 9.30137 14.2052 9.34931 14.494 9.34931C15.0235 9.34931 15.553 9.15753 15.9862 8.77397L16.0344 8.72603C17.5266 7.23973 19.2113 6.13699 20.9923 5.41781C22.8696 4.65068 24.8913 4.26712 26.913 4.26712C28.9347 4.26712 30.9564 4.65068 32.8336 5.41781C34.6628 6.18493 36.3475 7.28767 37.8397 8.72603C38.2729 9.15753 38.8024 9.34931 39.3319 9.34931C39.6207 9.34931 39.9577 9.30137 40.1984 9.15753C41.3055 10.5479 42.1719 12.1301 42.7977 13.8082C43.3272 15.2466 43.6641 16.7329 43.7604 18.2671C43.6641 18.1233 43.5197 17.9795 43.3753 17.8356C42.3163 16.7808 40.8723 16.1096 39.2357 16.1096C38.9468 16.1096 38.7062 16.3014 38.6099 16.5411C37.9841 15.1986 37.0696 13.9521 36.0106 12.8973C33.6519 10.5479 30.4269 9.10959 26.8648 9.10959C23.3028 9.10959 20.0296 10.5479 17.7191 12.8973C16.6601 13.9521 15.7937 15.1986 15.1198 16.5411C15.0235 16.3014 14.7828 16.1096 14.494 16.1096C12.8574 16.1096 11.4134 16.7808 10.3544 17.8356C10.21 17.9795 10.1137 18.1233 9.9693 18.2671C10.1618 16.7329 10.4988 15.2466 11.0283 13.8082ZM11.3171 18.7466C11.991 18.0753 12.9056 17.5959 13.9164 17.4521V21.9589V26.4658C12.9056 26.3219 11.991 25.8425 11.3171 25.1712C10.4988 24.3562 9.9693 23.2055 9.9693 21.9589C9.9693 20.7123 10.4988 19.5616 11.3171 18.7466Z" fill="white"/>
<path d="M45.8302 42.4315C42.5089 39.1713 37.936 37.1096 32.8818 37.1096H20.9442C15.89 37.1096 11.3171 39.1713 7.9476 42.4795C4.62625 45.7877 2.55643 50.3425 2.55643 55.3767C2.55643 55.7124 2.84524 56 3.18219 56H50.5956C50.9326 56 51.2214 55.7124 51.2214 55.3767C51.2214 50.3425 49.1516 45.7877 45.8302 42.4315ZM3.85608 54.7055C4.00049 50.2946 5.92591 46.2672 8.86217 43.3425C11.991 40.274 16.2269 38.3562 20.9442 38.3562H32.8818C37.599 38.3562 41.835 40.274 44.9638 43.3425C47.9 46.2672 49.8255 50.2946 49.9699 54.7055H3.85608Z" fill="white"/>
</svg>
