<svg width="49" height="49" viewBox="0 0 49 49" fill="none" xmlns="http://www.w3.org/2000/svg">
<g clip-path="url(#clip0_3_89)">
<path d="M48.1837 2.1381e-08C48.1836 2.1381e-08 48.1834 2.1381e-08 48.1833 2.1381e-08H0.816667C0.365765 -0.000102062 0.000102083 0.365356 0 0.816258C0 0.81636 0 0.816565 0 0.816667V17.15H1.63333V1.63333H47.3667V19.6H18.7833V21.2333H48.1833C48.6342 21.2334 48.9999 20.868 49 20.4171C49 20.417 49 20.4168 49 20.4167V0.816667C49.0001 0.365765 48.6346 0.000102105 48.1837 2.1381e-08Z" fill="white"/>
<path d="M43.2833 4.08331H26.95V5.71665H43.2833V4.08331Z" fill="white"/>
<path d="M45.7333 8.98334H29.4V10.6167H45.7333V8.98334Z" fill="white"/>
<path d="M42.4667 13.8834H26.1333V15.5167H42.4667V13.8834Z" fill="white"/>
<path d="M26.0682 7.04109C25.5091 5.69716 23.9664 5.06098 22.6226 5.62009C22.5996 5.62969 22.5768 5.63949 22.5541 5.6497L15.9321 9.0848C16.1933 8.54355 16.3304 7.95086 16.3333 7.35C16.3333 5.09487 14.5051 3.26666 12.25 3.26666C9.99488 3.26666 8.16667 5.09487 8.16667 7.35C8.16973 8.23639 8.46404 9.09725 9.00426 9.8H8.97027C6.65216 9.81551 4.58283 11.2566 3.76443 13.4256L1.58433 20.9398C1.06534 22.288 1.73746 23.8016 3.08567 24.3206C3.70042 24.5573 4.38182 24.5533 4.99381 24.3094C5.69696 24.0261 6.24413 23.4541 6.49597 22.7391L7.35 20.0211V31.8406C6.64726 31.3005 5.78639 31.0062 4.9 31.003C2.64825 30.9996 0.820035 32.8223 0.816667 35.0742C0.815033 36.177 1.26012 37.2334 2.05055 38.0025C0.796148 38.6433 0.00490002 39.9312 2.1381e-08 41.3398V48.1833C-0.000102062 48.6342 0.365356 48.9999 0.816258 49C0.81636 49 0.816565 49 0.816667 49H8.98333C9.43424 49.0001 9.7999 48.6346 9.8 48.1837C9.8 48.1836 9.8 48.1834 9.8 48.1833V41.3398C9.79602 40.1822 9.25824 39.0914 8.34266 38.3833H14.5241C13.6084 39.0914 13.0706 40.1822 13.0668 41.3398V48.1833C13.0667 48.6342 13.4321 48.9999 13.883 49C13.8831 49 13.8833 49 13.8834 49H22.0501C22.501 49.0001 22.8667 48.6346 22.8668 48.1837C22.8668 48.1836 22.8668 48.1834 22.8668 48.1833V41.3398C22.8619 39.9312 22.0706 38.6433 20.8162 38.0025C22.4286 36.4286 22.46 33.8456 20.8861 32.2332C19.917 31.2403 18.5095 30.8079 17.1501 31.0856V14.3794L24.6472 10.4866C25.991 9.9276 26.6272 8.38492 26.0682 7.04109ZM12.25 4.9C13.6031 4.9 14.7 5.99688 14.7 7.35C14.7 8.70311 13.6031 9.8 12.25 9.8C10.8975 9.79857 9.80143 8.7025 9.8 7.35C9.8 5.99688 10.8969 4.9 12.25 4.9ZM4.9 32.6363C6.25312 32.6363 7.35 33.7332 7.35 35.0863C7.35 36.4395 6.25312 37.5363 4.9 37.5363C3.54689 37.5363 2.45 36.4395 2.45 35.0863C2.45143 33.7338 3.5475 32.6379 4.9 32.6363ZM8.16667 47.3667H1.63333V41.3398C1.63497 40.1586 2.5922 39.2014 3.77351 39.2H6.02649C7.2077 39.2014 8.16503 40.1586 8.16667 41.3398V47.3667ZM21.2333 41.3398V47.3667H14.7V41.3398C14.7016 40.1586 15.6589 39.2014 16.8402 39.2H19.0932C20.2745 39.2014 21.2317 40.1586 21.2333 41.3398ZM17.9667 32.6363C19.3192 32.6378 20.4152 33.7338 20.4167 35.0863C20.4167 36.4395 19.3198 37.5363 17.9667 37.5363C16.6136 37.5363 15.5167 36.4395 15.5167 35.0863C15.5167 33.7332 16.6136 32.6363 17.9667 32.6363ZM24.5738 8.4035C24.4645 8.68402 24.24 8.90421 23.9573 9.00803L15.9574 13.1583C15.6866 13.2988 15.5167 13.5784 15.5167 13.8833V31.8406C13.9869 32.9717 13.457 35.0188 14.2459 36.75H13.0667V22.8667H11.4333V36.75H8.62073C8.85308 36.2365 8.97547 35.6802 8.98027 35.1167H8.98333V14.7C8.98323 14.2489 8.61747 13.8833 8.16646 13.8834C7.80989 13.8835 7.49455 14.115 7.38757 14.4552L4.949 22.2151C4.76423 22.7247 4.20124 22.988 3.69164 22.8032C3.65591 22.7902 3.6209 22.7752 3.5868 22.7581C3.11569 22.5147 2.9157 21.9463 3.13069 21.4614L5.31068 13.9471C5.89858 12.4373 7.3499 11.4404 8.97017 11.4333H14.7527C14.8835 11.4335 15.0126 11.402 15.1288 11.3417L23.2456 7.12837C23.7325 6.92523 24.2938 7.13307 24.5308 7.60449C24.6565 7.85296 24.6721 8.14288 24.5738 8.4035Z" fill="white"/>
<path d="M33.8828 38.0025C35.498 36.4287 35.5317 33.8435 33.958 32.2282C32.3843 30.613 29.799 30.5793 28.1838 32.153C26.5685 33.7267 26.5348 36.312 28.1085 37.9272C28.1333 37.9526 28.1585 37.9778 28.1839 38.0025C26.9296 38.6433 26.1382 39.9312 26.1333 41.3398V48.1833C26.1332 48.6342 26.4987 48.9999 26.9496 49C26.9497 49 26.9499 49 26.95 49H35.1167C35.5676 49.0001 35.9332 48.6346 35.9333 48.1837C35.9333 48.1836 35.9333 48.1834 35.9333 48.1833V41.3398C35.9284 39.9312 35.1372 38.6433 33.8828 38.0025ZM31.0333 32.6364C32.3864 32.6364 33.4833 33.7332 33.4833 35.0863C33.4833 36.4395 32.3864 37.5363 31.0333 37.5363C29.6802 37.5363 28.5833 36.4395 28.5833 35.0863C28.5848 33.7338 29.6808 32.6379 31.0333 32.6364ZM34.3 47.3667H27.7667V41.3398C27.7683 40.1586 28.7255 39.2014 29.9068 39.2H32.1598C33.341 39.2014 34.2984 40.1586 34.3 41.3398V47.3667Z" fill="white"/>
<path d="M46.9494 38.0025C48.5647 36.4287 48.5984 33.8435 47.0247 32.2282C45.451 30.613 42.8657 30.5793 41.2504 32.153C39.6352 33.7267 39.6015 36.312 41.1752 37.9272C41.2 37.9526 41.2251 37.9778 41.2505 38.0025C39.9962 38.6433 39.2049 39.9312 39.2 41.3398V48.1833C39.1999 48.6342 39.5654 48.9999 40.0163 49C40.0164 49 40.0166 49 40.0167 49H48.1833C48.6342 49.0001 48.9999 48.6346 49 48.1837C49 48.1836 49 48.1834 49 48.1833V41.3398C48.9951 39.9312 48.2038 38.6433 46.9494 38.0025ZM44.1 32.6364C45.4531 32.6364 46.55 33.7332 46.55 35.0863C46.55 36.4395 45.4531 37.5363 44.1 37.5363C42.7469 37.5363 41.65 36.4395 41.65 35.0863C41.6514 33.7338 42.7475 32.6379 44.1 32.6364ZM47.3667 47.3667H40.8333V41.3398C40.835 40.1586 41.7922 39.2014 42.9735 39.2H45.2265C46.4077 39.2014 47.365 40.1586 47.3667 41.3398V47.3667Z" fill="white"/>
</g>
<defs>
<clipPath id="clip0_3_89">
<rect width="49" height="49" fill="white"/>
</clipPath>
</defs>
</svg>
