<svg width="55" height="55" viewBox="0 0 55 55" fill="none" xmlns="http://www.w3.org/2000/svg">
<path d="M24.9219 37.8125H4.29688C2.87563 37.8125 1.71875 36.6556 1.71875 35.2344V2.57812C1.71875 1.15688 2.87563 0 4.29688 0H36.9531C38.3744 0 39.5312 1.15688 39.5312 2.57812V16.3281C39.5312 16.8023 39.1473 17.1875 38.6719 17.1875C38.1964 17.1875 37.8125 16.8023 37.8125 16.3281V2.57812C37.8125 2.1048 37.4273 1.71875 36.9531 1.71875H4.29688C3.82271 1.71875 3.4375 2.1048 3.4375 2.57812V35.2344C3.4375 35.7085 3.82271 36.0938 4.29688 36.0938H24.9219C25.3973 36.0938 25.7812 36.4777 25.7812 36.9531C25.7812 37.4286 25.3973 37.8125 24.9219 37.8125Z" fill="white"/>
<path d="M17.1875 9.45312C16.7121 9.45312 16.3281 9.06792 16.3281 8.59375V0.859375C16.3281 0.385208 16.7121 0 17.1875 0C17.6629 0 18.0469 0.385208 18.0469 0.859375V8.59375C18.0469 9.06792 17.6629 9.45312 17.1875 9.45312Z" fill="white"/>
<path d="M24.0625 9.45312C23.5871 9.45312 23.2031 9.06792 23.2031 8.59375V0.859375C23.2031 0.385208 23.5871 0 24.0625 0C24.5379 0 24.9219 0.385208 24.9219 0.859375V8.59375C24.9219 9.06792 24.5379 9.45312 24.0625 9.45312Z" fill="white"/>
<path d="M17.1883 9.45315C16.8728 9.45315 16.5694 9.27943 16.4183 8.97772C16.206 8.55349 16.3781 8.03694 16.8023 7.82461L20.2398 6.10586C20.6645 5.89354 21.1802 6.06558 21.3933 6.48981C21.6057 6.91447 21.4336 7.43101 21.009 7.64334L17.5715 9.36209C17.4489 9.42377 17.3172 9.45315 17.1883 9.45315Z" fill="white"/>
<path d="M24.0617 9.45315C23.9328 9.45315 23.8011 9.42378 23.6785 9.36293L20.241 7.64418C19.8164 7.43186 19.6444 6.91531 19.8567 6.49108C20.0698 6.06643 20.5847 5.89438 21.0102 6.10671L24.4477 7.82546C24.8719 8.03778 25.044 8.55433 24.8317 8.97898C24.6806 9.27943 24.3772 9.45315 24.0617 9.45315Z" fill="white"/>
<path d="M15.4688 30.9375H6.875C6.39957 30.9375 6.01562 30.5536 6.01562 30.0781C6.01562 29.6027 6.39957 29.2188 6.875 29.2188H15.4688C15.9442 29.2188 16.3281 29.6027 16.3281 30.0781C16.3281 30.5536 15.9442 30.9375 15.4688 30.9375Z" fill="white"/>
<path d="M11.1719 33.5156H6.875C6.39957 33.5156 6.01562 33.1317 6.01562 32.6562C6.01562 32.1808 6.39957 31.7969 6.875 31.7969H11.1719C11.6473 31.7969 12.0312 32.1808 12.0312 32.6562C12.0312 33.1317 11.6473 33.5156 11.1719 33.5156Z" fill="white"/>
<path d="M52.4219 55H24.9219C24.4464 55 24.0625 54.6161 24.0625 54.1406V16.3281C24.0625 15.854 24.4464 15.4688 24.9219 15.4688H52.4219C52.8973 15.4688 53.2812 15.854 53.2812 16.3281V54.1406C53.2812 54.6161 52.8973 55 52.4219 55ZM25.7812 53.2812H51.5625V17.1875H25.7812V53.2812Z" fill="white"/>
<path d="M34.3742 20.625C33.9889 20.625 33.6394 20.3644 33.5412 19.9746L32.6818 16.5371C32.566 16.0764 32.8463 15.6098 33.3075 15.4944C33.7666 15.3777 34.234 15.6597 34.3494 16.12L35.2088 19.5575C35.3246 20.0182 35.0443 20.4849 34.5831 20.6003C34.5135 20.6175 34.443 20.625 34.3742 20.625Z" fill="white"/>
<path d="M42.9688 20.625H34.375C33.8996 20.625 33.5156 20.2398 33.5156 19.7656C33.5156 19.2915 33.8996 18.9062 34.375 18.9062H42.9688C43.4442 18.9062 43.8281 19.2915 43.8281 19.7656C43.8281 20.2398 43.4442 20.625 42.9688 20.625Z" fill="white"/>
<path d="M42.9696 20.625C42.9008 20.625 42.8303 20.6175 42.7606 20.5994C42.3003 20.484 42.02 20.0174 42.135 19.5567L42.9944 16.1192C43.1097 15.6597 43.5747 15.3769 44.0363 15.4935C44.4966 15.6089 44.7769 16.0755 44.6619 16.5363L43.8025 19.9738C43.7043 20.3644 43.3548 20.625 42.9696 20.625Z" fill="white"/>
<path d="M34.1602 19.7656H27.5C27.0246 19.7656 26.6406 19.3804 26.6406 18.9062C26.6406 18.4321 27.0246 18.0469 27.5 18.0469H34.1602C34.6356 18.0469 35.0195 18.4321 35.0195 18.9062C35.0195 19.3804 34.6356 19.7656 34.1602 19.7656Z" fill="white"/>
<path d="M49.8438 19.7656H43.1836C42.7082 19.7656 42.3242 19.3804 42.3242 18.9062C42.3242 18.4321 42.7082 18.0469 43.1836 18.0469H49.8438C50.3192 18.0469 50.7031 18.4321 50.7031 18.9062C50.7031 19.3804 50.3192 19.7656 49.8438 19.7656Z" fill="white"/>
<path d="M49.8438 52.4219C49.3683 52.4219 48.9844 52.0379 48.9844 51.5625V18.9062C48.9844 18.4321 49.3683 18.0469 49.8438 18.0469C50.3192 18.0469 50.7031 18.4321 50.7031 18.9062V51.5625C50.7031 52.0379 50.3192 52.4219 49.8438 52.4219Z" fill="white"/>
<path d="M49.8438 52.4219H27.5C27.0246 52.4219 26.6406 52.0379 26.6406 51.5625C26.6406 51.0871 27.0246 50.7031 27.5 50.7031H49.8438C50.3192 50.7031 50.7031 51.0871 50.7031 51.5625C50.7031 52.0379 50.3192 52.4219 49.8438 52.4219Z" fill="white"/>
<path d="M27.5 52.4219C27.0246 52.4219 26.6406 52.0379 26.6406 51.5625V18.9062C26.6406 18.4321 27.0246 18.0469 27.5 18.0469C27.9754 18.0469 28.3594 18.4321 28.3594 18.9062V51.5625C28.3594 52.0379 27.9754 52.4219 27.5 52.4219Z" fill="white"/>
<path d="M32.6562 30.0781C32.4364 30.0781 32.2161 29.9938 32.0486 29.8264L31.1893 28.967C30.8532 28.6309 30.8532 28.0879 31.1893 27.7518C31.5254 27.4157 32.0684 27.4157 32.4045 27.7518L33.2638 28.6112C33.6 28.9473 33.6 29.4903 33.2638 29.8264C33.0964 29.9938 32.8761 30.0781 32.6562 30.0781Z" fill="white"/>
<path d="M32.6562 30.0781C32.4364 30.0781 32.2161 29.9938 32.0486 29.8264C31.7125 29.4903 31.7125 28.9473 32.0486 28.6112L34.6268 26.033C34.9629 25.6969 35.5059 25.6969 35.842 26.033C36.1781 26.3691 36.1781 26.9121 35.842 27.2482L33.2638 29.8264C33.0964 29.9938 32.8761 30.0781 32.6562 30.0781Z" fill="white"/>
<path d="M45.5469 27.5H38.6719C38.1964 27.5 37.8125 27.1148 37.8125 26.6406C37.8125 26.1665 38.1964 25.7812 38.6719 25.7812H45.5469C46.0223 25.7812 46.4062 26.1665 46.4062 26.6406C46.4062 27.1148 46.0223 27.5 45.5469 27.5Z" fill="white"/>
<path d="M41.25 30.0781H38.7529C38.2774 30.0781 37.8935 29.6942 37.8935 29.2188C37.8935 28.7433 38.2774 28.3594 38.7529 28.3594H41.25C41.7254 28.3594 42.1094 28.7433 42.1094 29.2188C42.1094 29.6942 41.7254 30.0781 41.25 30.0781Z" fill="white"/>
<path d="M32.6562 37.8125C32.4364 37.8125 32.2161 37.7282 32.0486 37.5607L31.1893 36.7014C30.8532 36.3653 30.8532 35.8223 31.1893 35.4862C31.5254 35.15 32.0684 35.15 32.4045 35.4862L33.2638 36.3455C33.6 36.6816 33.6 37.2246 33.2638 37.5607C33.0964 37.7282 32.8761 37.8125 32.6562 37.8125Z" fill="white"/>
<path d="M32.6562 37.8125C32.4364 37.8125 32.2161 37.7282 32.0486 37.5607C31.7125 37.2246 31.7125 36.6816 32.0486 36.3455L34.6268 33.7674C34.9629 33.4313 35.5059 33.4313 35.842 33.7674C36.1781 34.1035 36.1781 34.6465 35.842 34.9826L33.2638 37.5607C33.0964 37.7282 32.8761 37.8125 32.6562 37.8125Z" fill="white"/>
<path d="M45.5469 35.2344H38.6719C38.1964 35.2344 37.8125 34.8504 37.8125 34.375C37.8125 33.8996 38.1964 33.5156 38.6719 33.5156H45.5469C46.0223 33.5156 46.4062 33.8996 46.4062 34.375C46.4062 34.8504 46.0223 35.2344 45.5469 35.2344Z" fill="white"/>
<path d="M41.25 37.8125H38.7529C38.2774 37.8125 37.8935 37.4286 37.8935 36.9531C37.8935 36.4777 38.2774 36.0938 38.7529 36.0938H41.25C41.7254 36.0938 42.1094 36.4777 42.1094 36.9531C42.1094 37.4286 41.7254 37.8125 41.25 37.8125Z" fill="white"/>
<path d="M32.6562 45.5469C32.4364 45.5469 32.2161 45.4625 32.0486 45.2951L31.1893 44.4357C30.8532 44.0996 30.8532 43.5566 31.1893 43.2205C31.5254 42.8844 32.0684 42.8844 32.4045 43.2205L33.2638 44.0799C33.6 44.416 33.6 44.959 33.2638 45.2951C33.0964 45.4625 32.8761 45.5469 32.6562 45.5469Z" fill="white"/>
<path d="M32.6562 45.5469C32.4364 45.5469 32.2161 45.4625 32.0486 45.2951C31.7125 44.959 31.7125 44.416 32.0486 44.0799L34.6268 41.5018C34.9629 41.1657 35.5059 41.1657 35.842 41.5018C36.1781 41.8379 36.1781 42.3809 35.842 42.717L33.2638 45.2951C33.0964 45.4625 32.8761 45.5469 32.6562 45.5469Z" fill="white"/>
<path d="M45.5469 42.9688H38.6719C38.1964 42.9688 37.8125 42.5848 37.8125 42.1094C37.8125 41.6339 38.1964 41.25 38.6719 41.25H45.5469C46.0223 41.25 46.4062 41.6339 46.4062 42.1094C46.4062 42.5848 46.0223 42.9688 45.5469 42.9688Z" fill="white"/>
<path d="M41.25 45.5469H38.7529C38.2774 45.5469 37.8935 45.1629 37.8935 44.6875C37.8935 44.2121 38.2774 43.8281 38.7529 43.8281H41.25C41.7254 43.8281 42.1094 44.2121 42.1094 44.6875C42.1094 45.1629 41.7254 45.5469 41.25 45.5469Z" fill="white"/>
</svg>
