<svg width="60" height="60" viewBox="0 0 60 60" fill="none" xmlns="http://www.w3.org/2000/svg">
<g clip-path="url(#clip0_3_119)">
<path d="M58.1231 29.6002C56.117 27.9468 52.9461 27.805 50.865 30.0385L45.6986 35.5846C45.0306 33.4378 43.0256 31.8747 40.6622 31.8747H31.4425C30.7428 31.8747 30.5086 31.6075 29.2934 30.6713C24.66 26.632 17.7007 26.6449 13.0814 30.7099L9.69258 33.6933C8.16926 32.887 6.39047 32.8671 4.85883 33.6324L0.971954 35.5752C0.103595 36.01 -0.247851 37.0657 0.185626 37.9341L10.7319 59.0265C11.1667 59.8949 12.2224 60.2463 13.0908 59.8129L16.9777 57.8688C18.8936 56.9115 19.9598 54.9569 19.8907 52.9672H40.6621C44.5138 52.9672 48.1944 51.1275 50.5052 48.0457L58.9434 36.7941C60.5804 34.6132 60.3214 31.4153 58.1231 29.6002ZM15.405 54.7248L13.0907 55.8825L4.11586 37.9341L6.43137 36.7764C7.29973 36.3428 8.3543 36.6932 8.78906 37.5627L16.1913 52.3672C16.6249 53.2355 16.2734 54.2901 15.405 54.7248ZM56.1311 34.6847L47.693 45.9363C46.0419 48.1382 43.4135 49.4517 40.6622 49.4517H18.6639L12.0771 36.2772L15.4038 33.3489C18.7141 30.4369 23.7061 30.4369 27.0164 33.3489C28.9663 35.0656 30.1791 35.3902 31.4423 35.3902H40.6621C41.6312 35.3902 42.4198 36.1788 42.4198 37.1479C42.4198 38.1169 41.6311 38.9056 40.6621 38.9056H31.6849C30.7146 38.9056 29.9272 39.6931 29.9272 40.6633C29.9272 41.6335 30.7147 42.421 31.6849 42.421H41.8398C43.2987 42.421 44.7049 41.8092 45.6986 40.7418L53.4371 32.4348C54.145 31.6754 55.23 31.7387 55.8956 32.3211C56.5916 32.9304 56.6667 33.9722 56.1311 34.6847Z" fill="white"/>
<path d="M36.9592 11.9961C38.1626 10.7341 38.9044 9.02801 38.9044 7.1495C38.9044 3.2802 35.778 0.00152588 31.8736 0.00152588C27.9984 0.00152588 24.7256 3.27434 24.7256 7.1495C24.7256 8.97047 25.4393 10.6895 26.7353 12.0102C23.5211 13.8124 21.2102 17.2716 21.2102 21.3284V23.0861C21.2102 24.0563 21.9977 24.8438 22.9679 24.8438H40.6622C41.6324 24.8438 42.4199 24.0563 42.4199 23.0861V21.3284C42.4198 17.3513 40.2322 13.8382 36.9592 11.9961ZM31.8736 3.51703C33.7789 3.51703 35.389 5.18098 35.389 7.14961C35.389 9.08778 33.8118 10.665 31.8736 10.665C29.905 10.665 28.241 9.05496 28.241 7.14961C28.241 5.21496 29.9389 3.51703 31.8736 3.51703ZM24.7256 21.3284C24.7256 17.4532 27.9984 14.1804 31.8736 14.1804C35.7499 14.1804 38.9044 17.3864 38.9044 21.3284H24.7256Z" fill="white"/>
</g>
<defs>
<clipPath id="clip0_3_119">
<rect width="60" height="60" fill="white"/>
</clipPath>
</defs>
</svg>
