<svg width="62" height="62" viewBox="0 0 62 62" fill="none" xmlns="http://www.w3.org/2000/svg">
<rect x="0.325928" y="31.3259" width="43.8406" height="43.3797" rx="10" transform="rotate(-45 0.325928 31.3259)" fill="#FFB800"/>
<path d="M22.2624 28.2061C22.4026 28.0688 22.564 28 22.7464 28C22.9287 28 23.0901 28.0688 23.2304 28.2061L31.5001 36.3096L39.7702 28.2061C39.9104 28.0688 40.0719 28 40.2539 28C40.4365 28 40.5979 28.0688 40.7381 28.2061L41.7902 29.2372C41.9303 29.3746 42 29.5328 42 29.7112C42 29.8899 41.9299 30.0481 41.7902 30.1854L31.9838 39.794C31.8437 39.9316 31.6825 40 31.5001 40C31.3178 40 31.1563 39.9314 31.0161 39.794L21.2105 30.1855C21.07 30.0481 21 29.8901 21 29.711C21 29.5328 21.0702 29.3746 21.2105 29.2372L22.2624 28.2061Z" fill="white"/>
</svg>
