<svg width="170" height="41" viewBox="0 0 170 41" fill="none" xmlns="http://www.w3.org/2000/svg">
<path fill-rule="evenodd" clip-rule="evenodd" d="M61 16.889H63.009L64.0339 14.4176H68.8918L69.9352 16.889H71.9368L68.1296 8.10316C67.7708 7.27937 67.3342 7 66.4721 7C65.5582 7 65.1734 7.27937 64.8109 8.10316L61 16.889ZM66.1798 9.12387C66.239 8.98064 66.3426 8.71921 66.4721 8.71921C66.6016 8.71921 66.7015 8.98064 66.7607 9.12387L68.4034 13.1032H64.5223L66.1798 9.12387ZM80.7203 16.889V15.4205H77.2979C76.0991 15.4205 75.1742 15.2558 74.6562 14.4856C74.4527 14.1776 74.1826 13.5759 74.1826 12.111C74.1826 10.6605 74.4379 9.91903 74.745 9.48571C75.3221 8.64759 76.2731 8.57584 77.3979 8.57584H80.5611V7.11097H76.5024C75.7809 7.11097 74.2085 7.19343 73.1984 8.33957C72.3475 9.30298 72.218 10.7428 72.218 12.1397C72.218 13.2142 72.2883 14.7113 73.2428 15.7429C74.1826 16.7637 75.4924 16.889 76.4617 16.889H80.7203ZM90.3621 16.889V15.4205H86.9397C85.7447 15.4205 84.8197 15.2558 84.3017 14.4856C84.0982 14.1776 83.8244 13.5759 83.8244 12.111C83.8244 10.6605 84.0834 9.91903 84.3868 9.48571C84.964 8.64759 85.9185 8.57584 87.0433 8.57584H90.203V7.11097H86.1479C85.4265 7.11097 83.854 7.19343 82.8403 8.33957C81.9893 9.30298 81.8599 10.7428 81.8599 12.1397C81.8599 13.2142 81.9338 14.7113 82.8847 15.7429C83.8244 16.7637 85.1379 16.889 86.1035 16.889H90.3621ZM96.7 7C95.4716 7 93.7992 7 92.6746 8.03155C91.5757 9.03794 91.5054 10.6712 91.5054 12.0001C91.5054 13.1032 91.5054 14.8761 92.6746 15.9686C93.7882 17 95.5012 17 96.7 17C97.8432 17 99.645 17 100.729 15.9686C101.824 14.9191 101.869 13.0494 101.869 12.0001C101.869 10.7142 101.754 9.00929 100.729 8.03155C99.6302 7 97.8692 7 96.7 7ZM93.47 12.0001C93.47 10.5064 93.7142 9.7794 94.1175 9.28866C94.7798 8.49351 95.8045 8.46487 96.6851 8.46487C97.525 8.46487 98.6202 8.49351 99.2714 9.28866C99.6599 9.76508 99.904 10.5351 99.904 12.0001C99.904 13.4399 99.6451 14.235 99.2714 14.697C98.6202 15.5065 97.5361 15.5351 96.6851 15.5351C95.5456 15.5351 94.7095 15.4349 94.1175 14.697C93.6994 14.1776 93.47 13.3969 93.47 12.0001ZM113.819 16.889V15.4205H112.435V7.11097H110.53V15.4205H106.001C105.853 15.4205 105.565 15.4205 105.435 15.2665C105.306 15.1305 105.35 14.8368 105.35 14.654V7.11097H103.445V15.4635C103.445 15.8252 103.489 16.2873 103.878 16.6097C104.222 16.889 104.64 16.889 105.062 16.889H113.819ZM124.286 16.889V8.75856C124.286 8.26782 124.257 7 122.743 7C122.051 7 121.604 7.22207 121.056 8.08884L116.983 14.5431C116.897 14.6827 116.827 14.8511 116.713 14.8511C116.524 14.8511 116.535 14.6254 116.535 14.4033L116.579 7.11097H114.674V15.3238C114.674 15.8825 114.704 17 116.161 17C117.186 17 117.489 16.513 117.763 16.0796L121.922 9.58597C122.062 9.36028 122.181 9.13458 122.296 9.13458C122.425 9.13458 122.44 9.30299 122.44 9.45706L122.381 16.889H124.286ZM124.852 16.889H126.861L127.886 14.4176H132.748L133.787 16.889H135.793L131.982 8.10316C131.623 7.27937 131.186 7 130.324 7C129.414 7 129.026 7.27937 128.663 8.10316L124.852 16.889ZM130.036 9.12387C130.091 8.98064 130.195 8.71921 130.324 8.71921C130.454 8.71921 130.554 8.98064 130.613 9.12387L132.256 13.1032H128.375L130.036 9.12387ZM146.733 16.889V15.4205H145.35V7.11097H143.444V15.4205H138.915C138.767 15.4205 138.483 15.4205 138.353 15.2665C138.22 15.1305 138.264 14.8368 138.264 14.654V7.11097H136.359V15.4635C136.359 15.8252 136.403 16.2873 136.792 16.6097C137.139 16.889 137.558 16.889 137.976 16.889H146.733ZM157.2 16.889V8.75856C157.2 8.26782 157.17 7 155.657 7C154.965 7 154.518 7.22207 153.97 8.08884L149.9 14.5431C149.812 14.6827 149.741 14.8511 149.626 14.8511C149.438 14.8511 149.453 14.6254 149.453 14.4033L149.493 7.11097H147.592V15.3238C147.592 15.8825 147.617 17 149.079 17C150.1 17 150.407 16.513 150.677 16.0796L154.836 9.58597C154.98 9.36028 155.095 9.13458 155.21 9.13458C155.339 9.13458 155.354 9.30299 155.354 9.45706L155.295 16.889H157.2ZM168 16.889V8.64759C168 8.19981 167.985 7.85244 167.597 7.50145C167.234 7.16465 166.801 7.11097 166.487 7.11097H161.536C160.671 7.11097 159.919 7.22208 159.398 8.00277C158.924 8.71921 158.924 9.55371 158.924 10.1984C158.924 11.0079 158.969 11.846 159.372 12.5157C159.716 13.0888 160.323 13.4793 161.129 13.4793H162.443V13.5366L158.636 16.889H161.089L164.463 13.6906C164.84 13.3288 164.899 13.0208 164.899 12.8382V12.6161C164.899 12.0287 164.219 12.0108 164.03 12.0108H162.04C161.577 12.0108 161.248 11.7923 161.089 11.5236C160.944 11.3016 160.885 10.9363 160.885 10.2557C160.885 9.7794 160.9 9.23498 161.233 8.89832C161.536 8.5903 161.91 8.57584 162.213 8.57584H165.388C165.573 8.57584 165.732 8.59029 165.891 8.72991C166.065 8.88399 166.095 9.06658 166.095 9.21704V16.889H168Z" fill="#005DA9"/>
<path fill-rule="evenodd" clip-rule="evenodd" d="M61 26.5585H61.9275L62.4025 25.4142H64.654L65.1365 26.5585H66.0678L64.3025 22.4883C64.1342 22.108 63.9322 21.9777 63.532 21.9777C63.1094 21.9777 62.9299 22.108 62.7616 22.4883L61 26.5585ZM63.4011 22.9627C63.4273 22.8975 63.4722 22.7708 63.532 22.7708C63.5919 22.7708 63.6405 22.8975 63.6667 22.9627L64.4296 24.8059H62.6269L63.4011 22.9627ZM68.1173 26.5585L70.5745 22.0284H69.6096L68.1846 24.7733L66.7073 22.0284H65.7349L67.7321 25.5554L67.1599 26.5585H68.1173ZM70.7653 25.8778H70.3726V26.5585H75.8068V25.8778H75.4142L73.8433 22.4557C73.6975 22.1335 73.5067 21.9777 73.0916 21.9777C72.6166 21.9777 72.4633 22.195 72.3436 22.4557L70.7653 25.8778ZM72.9794 22.9409C72.9943 22.9011 73.0392 22.7997 73.0916 22.7997C73.1477 22.7997 73.1813 22.9011 73.2001 22.9409L74.5128 25.8778H71.6704L72.9794 22.9409ZM80.5942 26.5585V22.7924C80.5942 22.5644 80.5829 21.9777 79.8798 21.9777C79.5581 21.9777 79.3524 22.0827 79.0981 22.481L77.2094 25.4721C77.1719 25.5374 77.1384 25.6134 77.0822 25.6134C76.9962 25.6134 77.0036 25.5119 77.0036 25.4069L77.0224 22.0284H76.1434V25.8378C76.1434 26.095 76.1547 26.6128 76.8317 26.6128C77.3029 26.6128 77.4451 26.3883 77.5721 26.1855L79.4983 23.1764C79.5657 23.0714 79.618 22.9663 79.674 22.9663C79.7338 22.9663 79.7376 23.0459 79.7376 23.1148L79.7115 26.5585H80.5942ZM83.6385 26.5585V22.7092H85.4674V22.0284H80.9308V22.7092H82.7559V26.5585H83.6385ZM88.078 21.9777C87.5095 21.9777 86.7316 21.9777 86.2117 22.4557C85.7031 22.9229 85.6694 23.6797 85.6694 24.2952C85.6694 24.8059 85.6694 25.6279 86.2117 26.1348C86.724 26.6128 87.5207 26.6128 88.078 26.6128C88.6054 26.6128 89.4393 26.6128 89.9406 26.1348C90.4492 25.6496 90.4716 24.7806 90.4716 24.2952C90.4716 23.6977 90.4155 22.9084 89.9406 22.4557C89.4357 21.9777 88.6203 21.9777 88.078 21.9777ZM86.5783 24.2952C86.5783 23.6037 86.6941 23.2668 86.8812 23.0388C87.1878 22.6694 87.6628 22.6584 88.0704 22.6584C88.4557 22.6584 88.9681 22.6694 89.2672 23.0388C89.4469 23.2596 89.5627 23.6145 89.5627 24.2952C89.5627 24.9615 89.4393 25.3273 89.2672 25.5446C88.9681 25.9212 88.4632 25.932 88.0704 25.932C87.5394 25.932 87.1542 25.8886 86.8812 25.5446C86.6867 25.3019 86.5783 24.9435 86.5783 24.2952ZM92.02 26.5585V24.9543H94.2154C94.4884 24.9543 94.7577 24.871 94.9298 24.737C95.2963 24.4437 95.3374 23.8607 95.3374 23.4913C95.3374 23.1112 95.3037 22.6005 94.9821 22.2999C94.6941 22.0284 94.3015 22.0284 94.0546 22.0284H91.8255C91.6646 22.0284 91.4515 22.0537 91.2981 22.2059C91.1374 22.358 91.1374 22.5389 91.1374 22.7092V26.5585H92.02ZM92.02 24.2736V22.9808C92.02 22.9011 92.02 22.8251 92.0798 22.7671C92.1472 22.7019 92.2295 22.7092 92.2893 22.7092H93.7105C93.86 22.7092 94.1069 22.7164 94.2602 22.8648C94.4098 23.0133 94.4285 23.2849 94.4285 23.4841C94.4285 23.6616 94.4136 23.9512 94.2752 24.107C94.1182 24.2736 93.8937 24.2736 93.6993 24.2736H92.02ZM99.8106 26.5585V25.8778H98.2247C97.6712 25.8778 97.2411 25.8017 97.0018 25.4468C96.9083 25.3019 96.7811 25.0267 96.7811 24.346C96.7811 23.6724 96.9045 23.3284 97.0429 23.1293C97.3085 22.7418 97.7498 22.7092 98.2734 22.7092H99.7358V22.0284H97.8582C97.5253 22.0284 96.796 22.0682 96.3248 22.6005C95.932 23.0459 95.8722 23.7122 95.8722 24.3605C95.8722 24.8565 95.9059 25.5519 96.3472 26.0299C96.7811 26.5042 97.3907 26.5585 97.8357 26.5585H99.8106ZM100.413 26.5585H101.295V22.0284H100.413V26.5585ZM104.893 26.5585L102.679 24.6501C102.545 24.5342 102.376 24.3786 102.376 24.2373C102.376 24.1396 102.473 24.0309 102.623 23.8898L104.643 22.0284H103.554L101.781 23.7268C101.553 23.9477 101.527 24.1431 101.527 24.2373C101.527 24.3532 101.576 24.574 101.849 24.8204L103.775 26.5585H104.893ZM109.546 26.5585V22.7924C109.546 22.5644 109.531 21.9777 108.832 21.9777C108.51 21.9777 108.3 22.0827 108.046 22.481L106.161 25.4721C106.12 25.5374 106.09 25.6134 106.034 25.6134C105.948 25.6134 105.955 25.5119 105.955 25.4069L105.974 22.0284H105.092V25.8378C105.092 26.095 105.106 26.6128 105.78 26.6128C106.255 26.6128 106.397 26.3883 106.524 26.1855L108.446 23.1764C108.514 23.0714 108.57 22.9663 108.622 22.9663C108.682 22.9663 108.689 23.0459 108.689 23.1148L108.663 26.5585H109.546ZM114.397 26.5585L112.609 24.2626L114.344 22.0284H113.301L112.104 23.6616L110.907 22.0284H109.867L111.607 24.2626L109.811 26.5585H110.855L112.104 24.8638L113.353 26.5585H114.397ZM118.496 21.9777C117.931 21.9777 117.153 21.9777 116.633 22.4557C116.125 22.9229 116.091 23.6797 116.091 24.2952C116.091 24.8059 116.091 25.6279 116.633 26.1348C117.146 26.6128 117.942 26.6128 118.496 26.6128C119.027 26.6128 119.861 26.6128 120.362 26.1348C120.871 25.6496 120.889 24.7806 120.889 24.2952C120.889 23.6977 120.837 22.9084 120.362 22.4557C119.853 21.9777 119.038 21.9777 118.496 21.9777ZM117 24.2952C117 23.6037 117.112 23.2668 117.299 23.0388C117.609 22.6694 118.081 22.6584 118.488 22.6584C118.877 22.6584 119.386 22.6694 119.685 23.0388C119.868 23.2596 119.981 23.6145 119.981 24.2952C119.981 24.9615 119.861 25.3273 119.685 25.5446C119.386 25.9212 118.885 25.932 118.488 25.932C117.965 25.932 117.572 25.8886 117.299 25.5446C117.104 25.3019 117 24.9435 117 24.2952ZM122.441 26.5585V24.9543H124.633C124.906 24.9543 125.175 24.871 125.351 24.737C125.718 24.4437 125.759 23.8607 125.759 23.4913C125.759 23.1112 125.725 22.6005 125.404 22.2999C125.116 22.0284 124.723 22.0284 124.472 22.0284H122.247C122.086 22.0284 121.873 22.0537 121.72 22.2059C121.559 22.358 121.559 22.5389 121.559 22.7092V26.5585H122.441ZM122.441 24.2736V22.9808C122.441 22.9011 122.441 22.8251 122.501 22.7671C122.569 22.7019 122.647 22.7092 122.707 22.7092H124.136C124.278 22.7092 124.528 22.7164 124.682 22.8648C124.828 23.0133 124.85 23.2849 124.85 23.4841C124.85 23.6616 124.835 23.9512 124.697 24.107C124.543 24.2736 124.311 24.2736 124.117 24.2736H122.441ZM127.311 26.5585V23.0061C127.311 22.9229 127.311 22.825 127.349 22.7708C127.408 22.7019 127.562 22.7092 127.655 22.7092H130.176V22.0284H127.049C126.84 22.0284 126.683 22.1117 126.585 22.2059C126.432 22.3507 126.425 22.5136 126.425 22.6839V26.5585H127.311ZM129.91 26.5585H130.838L131.313 25.4142H133.568L134.051 26.5585H134.978L133.213 22.4883C133.048 22.108 132.843 21.9777 132.442 21.9777C132.024 21.9777 131.844 22.108 131.676 22.4883L129.91 26.5585ZM132.311 22.9627C132.338 22.8975 132.383 22.7708 132.442 22.7708C132.506 22.7708 132.551 22.8975 132.577 22.9627L133.34 24.8059H131.541L132.311 22.9627ZM139.376 22.0284H138.494V23.8898H136.063V22.0284H135.176V26.5585H136.063V24.5669H138.494V26.5585H139.376V22.0284ZM144.631 26.5585V22.7924C144.631 22.5644 144.62 21.9777 143.917 21.9777C143.595 21.9777 143.386 22.0827 143.135 22.481L141.25 25.4721C141.209 25.5374 141.175 25.6134 141.123 25.6134C141.037 25.6134 141.041 25.5119 141.041 25.4069L141.063 22.0284H140.177V25.8378C140.177 26.095 140.196 26.6128 140.869 26.6128C141.344 26.6128 141.482 26.3883 141.609 26.1855L143.535 23.1764C143.603 23.0714 143.655 22.9663 143.707 22.9663C143.771 22.9663 143.778 23.0459 143.778 23.1148L143.749 26.5585H144.631ZM145.368 26.5585H147.788C148.109 26.5585 148.521 26.5404 148.79 26.3774C149.187 26.1384 149.213 25.6749 149.213 25.349C149.213 24.9796 149.164 24.7551 149.078 24.6103C148.959 24.4039 148.715 24.2881 148.461 24.2736V24.2481C148.611 24.2157 148.753 24.1431 148.858 24.0491C149.108 23.8209 149.127 23.5421 149.127 23.2523C149.127 22.9156 149.101 22.5644 148.839 22.3072C148.543 22.0248 148.162 22.0284 147.855 22.0284H145.394V22.7092H147.653C147.795 22.7092 147.949 22.7164 148.061 22.8034C148.222 22.9337 148.218 23.1509 148.218 23.3176C148.218 23.4515 148.222 23.6652 148.102 23.7919C148.001 23.8933 147.788 23.9296 147.485 23.9296H145.462V24.6103H147.601C147.967 24.6103 148.098 24.7045 148.136 24.737C148.297 24.871 148.304 25.1065 148.304 25.244C148.304 25.4287 148.289 25.6822 148.076 25.7944C147.937 25.8741 147.601 25.8778 147.519 25.8778H145.368V26.5585ZM149.28 26.5585H150.208L150.683 25.4142H152.938L153.417 26.5585H154.348L152.583 22.4883C152.414 22.108 152.212 21.9777 151.812 21.9777C151.393 21.9777 151.21 22.108 151.045 22.4883L149.28 26.5585ZM151.678 22.9627C151.707 22.8975 151.752 22.7708 151.812 22.7708C151.876 22.7708 151.921 22.8975 151.947 22.9627L152.706 24.8059H150.911L151.678 22.9627ZM159.356 26.5585V25.8778H158.712V22.0284H157.83V25.8778H155.732C155.664 25.8778 155.53 25.8778 155.47 25.8125C155.41 25.7438 155.429 25.6098 155.429 25.5264V22.0284H154.546V25.8994C154.546 26.066 154.569 26.2832 154.748 26.4317C154.909 26.5585 155.103 26.5585 155.298 26.5585H159.356ZM164.143 26.5585V22.7924C164.143 22.5644 164.128 21.9777 163.429 21.9777C163.107 21.9777 162.898 22.0827 162.643 22.481L160.758 25.4721C160.717 25.5374 160.687 25.6134 160.631 25.6134C160.545 25.6134 160.553 25.5119 160.553 25.4069L160.571 22.0284H159.689V25.8378C159.689 26.095 159.704 26.6128 160.377 26.6128C160.852 26.6128 160.994 26.3883 161.121 26.1855L163.047 23.1764C163.111 23.0714 163.167 22.9663 163.219 22.9663C163.279 22.9663 163.287 23.0459 163.287 23.1148L163.26 26.5585H164.143ZM169.394 26.5585V22.7924C169.394 22.5644 169.383 21.9777 168.68 21.9777C168.358 21.9777 168.156 22.0827 167.898 22.481L166.013 25.4721C165.972 25.5374 165.938 25.6134 165.886 25.6134C165.8 25.6134 165.807 25.5119 165.807 25.4069L165.826 22.0284H164.944V25.8378C164.944 26.095 164.958 26.6128 165.632 26.6128C166.107 26.6128 166.249 26.3883 166.376 26.1855L168.302 23.1764C168.369 23.0714 168.422 22.9663 168.474 22.9663C168.534 22.9663 168.541 23.0459 168.541 23.1148L168.515 26.5585H169.394ZM165.841 21C165.908 21.2282 166.069 21.5178 166.294 21.6808C166.496 21.8221 166.802 21.8981 167.15 21.8981C167.438 21.8981 167.778 21.8474 168.014 21.6808C168.242 21.5178 168.403 21.2282 168.467 21H167.835C167.801 21.1087 167.726 21.2137 167.644 21.2861C167.498 21.4056 167.311 21.4201 167.15 21.4201C166.997 21.4201 166.81 21.4056 166.664 21.2861C166.582 21.2137 166.507 21.1087 166.477 21H165.841ZM121.877 33.9457H122.76V29.4157H121.877V33.9457ZM126.354 33.9457L124.143 32.0373C124.009 31.9215 123.844 31.7658 123.844 31.6245C123.844 31.5268 123.934 31.4181 124.091 31.2733L126.107 29.4157H125.018L123.249 31.1104C123.018 31.3313 122.991 31.5303 122.991 31.6245C122.991 31.7404 123.04 31.9577 123.313 32.2076L125.239 33.9457H126.354ZM66.0528 33.9457V30.1796C66.0528 29.9516 66.0416 29.3649 65.3385 29.3649C65.0168 29.3649 64.8111 29.4663 64.5531 29.8682L62.6681 32.8594C62.6269 32.9246 62.597 33.0005 62.5409 33.0005C62.4549 33.0005 62.4624 32.8992 62.4624 32.7941L62.4811 29.4157H61.6022V33.2214C61.6022 33.4785 61.6134 34 62.2903 34C62.7616 34 62.9037 33.7718 63.0309 33.5727L64.957 30.56C65.0243 30.4549 65.0766 30.3534 65.129 30.3534C65.1926 30.3534 65.1963 30.4295 65.1963 30.502L65.1702 33.9457H66.0528ZM70.4137 33.9457H71.345L71.8162 32.8014H74.0715L74.5539 33.9457H75.4815L73.7162 29.8755C73.5516 29.4952 73.3496 29.3649 72.9495 29.3649C72.5268 29.3649 72.3473 29.4952 72.179 29.8755L70.4137 33.9457ZM72.8148 30.3463C72.841 30.2847 72.8896 30.158 72.9495 30.158C73.0093 30.158 73.0579 30.2847 73.0841 30.3463L73.8433 32.1931H72.0481L72.8148 30.3463ZM77.804 33.9457L80.2538 29.4157H79.2926L77.8676 32.1605L76.3903 29.4157H75.4142L77.4114 32.9426L76.8466 33.9457H77.804ZM80.7139 33.265H80.3211V33.9457H85.7554V33.265H85.3627L83.7918 29.8429C83.6461 29.5207 83.459 29.3649 83.0439 29.3649C82.5651 29.3649 82.4118 29.5821 82.2921 29.8429L80.7139 33.265ZM82.9279 30.3281C82.943 30.2883 82.9915 30.187 83.0439 30.187C83.0962 30.187 83.1298 30.2883 83.1486 30.3281L84.4614 33.265H81.6189L82.9279 30.3281ZM90.812 33.9457V30.1796C90.812 29.9516 90.797 29.3649 90.0939 29.3649C89.7723 29.3649 89.5665 29.4663 89.3122 29.8682L87.4271 32.8594C87.3861 32.9246 87.3524 33.0005 87.3001 33.0005C87.2102 33.0005 87.2178 32.8992 87.2178 32.7941L87.2403 29.4157H86.3575V33.2214C86.3575 33.4785 86.3687 34 87.0457 34C87.5207 34 87.6628 33.7718 87.7862 33.5727L89.7123 30.56C89.7797 30.4549 89.8357 30.3534 89.8881 30.3534C89.948 30.3534 89.9555 30.4295 89.9555 30.502L89.9256 33.9457H90.812ZM94.1181 33.9457V30.0964H95.9508V29.4157H91.4104V30.0964H93.2355V33.9457H94.1181ZM98.8231 29.3649C98.2546 29.3649 97.4804 29.3649 96.9569 29.8429C96.4519 30.31 96.4146 31.0633 96.4146 31.6825C96.4146 32.1931 96.4146 33.015 96.9569 33.522C97.473 34 98.2696 34 98.8231 34C99.3505 34 100.188 34 100.689 33.522C101.198 33.0331 101.217 32.1641 101.217 31.6825C101.217 31.0849 101.164 30.2955 100.689 29.8429C100.181 29.3649 99.3655 29.3649 98.8231 29.3649ZM97.3271 31.6825C97.3271 30.9872 97.4393 30.654 97.6263 30.426C97.933 30.0565 98.4118 30.042 98.8194 30.042C99.2046 30.042 99.7133 30.0565 100.016 30.426C100.192 30.6432 100.308 31.0017 100.308 31.6825C100.308 32.3487 100.188 32.7145 100.016 32.9281C99.7133 33.3048 99.2121 33.3192 98.8194 33.3192C98.2883 33.3192 97.9031 33.2721 97.6263 32.9281C97.4355 32.6891 97.3271 32.3271 97.3271 31.6825ZM103.034 33.9457V32.3416H105.23C105.503 32.3416 105.772 32.2582 105.944 32.1207C106.311 31.8273 106.352 31.2479 106.352 30.8785C106.352 30.4984 106.318 29.9841 105.997 29.6871C105.709 29.4157 105.316 29.4157 105.069 29.4157H102.84C102.683 29.4157 102.466 29.441 102.313 29.5931C102.152 29.7451 102.152 29.9262 102.152 30.0964V33.9457H103.034ZM103.034 31.6608V30.368C103.034 30.2883 103.034 30.2123 103.094 30.1543C103.165 30.0891 103.244 30.0964 103.304 30.0964H104.725C104.875 30.0964 105.121 30.1036 105.275 30.2485C105.424 30.397 105.443 30.6721 105.443 30.8714C105.443 31.0488 105.428 31.3384 105.29 31.4942C105.133 31.6608 104.908 31.6608 104.714 31.6608H103.034ZM109.557 29.3649C108.989 29.3649 108.218 29.3649 107.695 29.8429C107.186 30.31 107.152 31.0633 107.152 31.6825C107.152 32.1931 107.152 33.015 107.695 33.522C108.211 34 109.007 34 109.557 34C110.088 34 110.922 34 111.427 33.522C111.932 33.0331 111.951 32.1641 111.951 31.6825C111.951 31.0849 111.898 30.2955 111.427 29.8429C110.915 29.3649 110.099 29.3649 109.557 29.3649ZM108.061 31.6825C108.061 30.9872 108.173 30.654 108.36 30.426C108.671 30.0565 109.146 30.042 109.553 30.042C109.939 30.042 110.447 30.0565 110.75 30.426C110.93 30.6432 111.046 31.0017 111.046 31.6825C111.046 32.3487 110.922 32.7145 110.75 32.9281C110.447 33.3048 109.946 33.3192 109.553 33.3192C109.026 33.3192 108.637 33.2721 108.36 32.9281C108.17 32.6891 108.061 32.3271 108.061 31.6825ZM113.529 29.4157C113.383 29.4157 113.174 29.441 113.035 29.6039C112.938 29.7198 112.89 29.9008 112.89 30.0711V33.3048C112.89 33.5619 113.002 33.7139 113.05 33.7646C113.237 33.971 113.45 33.9457 113.682 33.9457H115.923C116.211 33.9457 116.51 33.9457 116.779 33.656C117.048 33.3663 117.048 33.0005 117.048 32.7036C117.048 32.4501 117.048 32.1279 116.828 31.8962C116.715 31.7693 116.532 31.6753 116.312 31.6571V31.6282C116.484 31.6137 116.618 31.5521 116.753 31.3963C116.962 31.1573 116.974 30.904 116.974 30.6577C116.974 30.3607 116.94 29.9479 116.678 29.6871C116.431 29.441 116.083 29.4157 115.829 29.4157H113.529ZM113.768 31.3168V30.3463C113.768 30.2955 113.78 30.2051 113.832 30.147C113.884 30.0891 113.955 30.0964 114.03 30.0964H115.474C115.624 30.0964 115.78 30.0964 115.911 30.2123C116.057 30.3463 116.065 30.5744 116.065 30.6975C116.065 31.0054 115.997 31.1175 115.964 31.1573C115.844 31.3168 115.657 31.3168 115.481 31.3168H113.768ZM113.768 31.9975H115.56C115.852 31.9975 115.986 32.1134 116.039 32.1858C116.125 32.3089 116.136 32.5153 116.136 32.6457C116.136 32.787 116.117 32.9897 116.016 33.1055C115.882 33.2613 115.642 33.265 115.504 33.265H114.112C114.045 33.265 113.899 33.2721 113.825 33.1961C113.791 33.1563 113.768 33.0802 113.768 32.9281V31.9975ZM126.219 33.9457H127.15L127.625 32.8014H129.877L130.359 33.9457H131.291L129.525 29.8755C129.357 29.4952 129.155 29.3649 128.755 29.3649C128.332 29.3649 128.153 29.4952 127.984 29.8755L126.219 33.9457ZM128.624 30.3463C128.65 30.2847 128.695 30.158 128.755 30.158C128.815 30.158 128.863 30.2847 128.889 30.3463L129.652 32.1931H127.85L128.624 30.3463ZM131.691 33.9457H134.11C134.432 33.9457 134.843 33.9276 135.113 33.7646C135.506 33.5256 135.532 33.0584 135.532 32.7362C135.532 32.3669 135.487 32.1387 135.397 31.9975C135.281 31.7911 135.038 31.6753 134.787 31.6608V31.6354C134.93 31.6027 135.072 31.5303 135.18 31.4363C135.427 31.2081 135.446 30.9293 135.446 30.6395C135.446 30.2992 135.42 29.9516 135.158 29.6908C134.866 29.4084 134.485 29.4157 134.174 29.4157H131.717V30.0964H133.976C134.114 30.0964 134.271 30.1036 134.383 30.1906C134.544 30.3209 134.537 30.5345 134.537 30.7048C134.537 30.8387 134.544 31.0523 134.425 31.1755C134.324 31.2805 134.11 31.3168 133.811 31.3168H131.78V31.9975H133.923C134.29 31.9975 134.417 32.0881 134.458 32.1207C134.619 32.2582 134.627 32.49 134.627 32.6312C134.627 32.8159 134.612 33.0658 134.395 33.1816C134.256 33.2613 133.923 33.265 133.841 33.265H131.691V33.9457ZM135.868 33.9457H136.796L137.271 32.8014H139.522L140.005 33.9457H140.932L139.167 29.8755C139.002 29.4952 138.804 29.3649 138.4 29.3649C137.978 29.3649 137.798 29.4952 137.63 29.8755L135.868 33.9457ZM138.266 30.3463C138.292 30.2847 138.341 30.158 138.4 30.158C138.46 30.158 138.509 30.2847 138.535 30.3463L139.298 32.1931H137.499L138.266 30.3463ZM145.454 33.9457L143.663 31.6498L145.402 29.4157H144.355L143.158 31.0488L141.961 29.4157H140.921L142.66 31.6498L140.869 33.9457H141.908L143.158 32.251L144.411 33.9457H145.454ZM149.789 33.9457V33.265H148.207C147.649 33.265 147.223 33.1889 146.984 32.8341C146.89 32.6891 146.763 32.414 146.763 31.7332C146.763 31.0596 146.883 30.7156 147.021 30.5165C147.29 30.129 147.732 30.0964 148.255 30.0964H149.718V29.4157H147.836C147.504 29.4157 146.774 29.4518 146.307 29.9841C145.914 30.4295 145.85 31.0994 145.85 31.744C145.85 32.2437 145.888 32.9354 146.329 33.417C146.763 33.8878 147.369 33.9457 147.818 33.9457H149.789ZM152.9 33.9457V30.0964H154.729V29.4157H150.189V30.0964H152.018V33.9457H152.9ZM154.729 33.9457H155.661L156.132 32.8014H158.387L158.87 33.9457H159.797L158.032 29.8755C157.867 29.4952 157.665 29.3649 157.265 29.3649C156.842 29.3649 156.663 29.4952 156.495 29.8755L154.729 33.9457ZM157.131 30.3463C157.157 30.2847 157.205 30.158 157.265 30.158C157.325 30.158 157.374 30.2847 157.4 30.3463L158.163 32.1931H156.36L157.131 30.3463ZM164.465 29.4157H163.578V31.2733H161.147V29.4157H160.265V33.9457H161.147V31.9504H163.578V33.9457H164.465V29.4157ZM164.929 33.9457H165.86L166.335 32.8014H168.59L169.069 33.9457H170L168.235 29.8755C168.066 29.4952 167.864 29.3649 167.464 29.3649C167.045 29.3649 166.862 29.4952 166.694 29.8755L164.929 33.9457ZM167.33 30.3463C167.356 30.2847 167.404 30.158 167.464 30.158C167.524 30.158 167.569 30.2847 167.599 30.3463L168.358 32.1931H166.563L167.33 30.3463Z" fill="#9B9D9F"/>
<path fill-rule="evenodd" clip-rule="evenodd" d="M1 15C2.24024 13.7627 10.3601 13.0608 15.3552 13.0608H29.9453C34.0639 13.0469 37.7845 13.2689 41.0353 10.0897C43.4097 7.83151 45.3746 3.17366 44.9392 0C43.8451 1.29554 42.3385 3.06825 40.5514 3.73405C38.598 4.46365 37.332 4.79378 35.2039 4.96578C31.8815 5.2321 17.532 4.78546 15.6216 5.0823C13.5594 5.40133 11.7636 5.85629 10.3172 6.47216C8.87368 7.08803 6.63674 8.16164 4.72917 10.0259C2.82171 11.8901 2.48077 12.3812 1 15Z" fill="#005DA9"/>
<path fill-rule="evenodd" clip-rule="evenodd" d="M33.0473 19.5285C27.6874 19.6367 11.2083 19.8471 8.83117 19.7974C4.48462 19.7009 0.703644 21.911 0.000195813 24.5362C-0.0141822 26.0476 0.766736 28.5178 1.18874 30C1.7056 29.4621 2.1276 29.1581 2.95155 28.6436C3.77839 28.132 5.94882 27.445 7.62535 27.3806C12.0495 27.2958 27.3745 27.2199 33.1765 26.8661C34.9078 26.7609 35.1891 26.3954 35.7259 26.0096L36.1394 25.7464C38.1088 24.2527 39.1711 21.6538 39.55 20.5195C39.929 19.3853 40.1816 17.6809 39.8371 16C38.973 17.0114 38.4074 19.4232 33.0473 19.5285Z" fill="#9B9D9F"/>
<path fill-rule="evenodd" clip-rule="evenodd" d="M18.2886 40.9986C22.9332 40.9298 27.1206 38.8612 29.0619 37.1459C31.0061 35.4305 33.8872 31.7334 34 31C33.3256 31.6526 31.6777 32.5387 30.0157 33.1554C28.3565 33.772 17.3884 33.6164 14.753 33.6523C12.1175 33.6852 6.38946 32.8889 6 35.7748C8.50289 38.5139 13.6412 41.0676 18.2886 40.9986Z" fill="#9B9D9F"/>
</svg>
