<svg width="45" height="41" viewBox="0 0 45 41" fill="none" xmlns="http://www.w3.org/2000/svg">
<path fill-rule="evenodd" clip-rule="evenodd" d="M1 15C2.24024 13.7627 10.3601 13.0608 15.3552 13.0608H29.9453C34.0639 13.0469 37.7845 13.2689 41.0353 10.0897C43.4097 7.83151 45.3746 3.17366 44.9392 0C43.8451 1.29554 42.3385 3.06825 40.5514 3.73405C38.598 4.46365 37.332 4.79378 35.2039 4.96578C31.8815 5.2321 17.532 4.78546 15.6216 5.0823C13.5594 5.40133 11.7636 5.85629 10.3172 6.47216C8.87369 7.08803 6.63674 8.16163 4.72917 10.0259C2.82171 11.8901 2.48077 12.3812 1 15Z" fill="white"/>
<path fill-rule="evenodd" clip-rule="evenodd" d="M33.0473 19.5285C27.6874 19.6367 11.2083 19.8471 8.83117 19.7974C4.48462 19.7009 0.703644 21.911 0.000195813 24.5362C-0.0141822 26.0476 0.766736 28.5178 1.18874 30C1.7056 29.4621 2.1276 29.1581 2.95155 28.6436C3.77839 28.132 5.94882 27.445 7.62535 27.3806C12.0495 27.2958 27.3745 27.2199 33.1765 26.8661C34.9078 26.7609 35.1891 26.3954 35.7259 26.0096L36.1394 25.7464C38.1088 24.2527 39.1711 21.6538 39.55 20.5195C39.929 19.3853 40.1816 17.6809 39.8371 16C38.973 17.0114 38.4074 19.4232 33.0473 19.5285Z" fill="white"/>
<path fill-rule="evenodd" clip-rule="evenodd" d="M18.2886 40.9986C22.9332 40.9298 27.1206 38.8612 29.0619 37.1459C31.0061 35.4305 33.8872 31.7334 34 31C33.3256 31.6526 31.6777 32.5387 30.0157 33.1554C28.3565 33.772 17.3884 33.6164 14.753 33.6523C12.1175 33.6852 6.38946 32.8889 6 35.7748C8.50289 38.5139 13.6412 41.0676 18.2886 40.9986Z" fill="white"/>
</svg>
